  0
SECTION
  2
BLOCKS
  0
ENDSEC
  0
SECTION
  2
ENTITIES
  0
LINE
  8
0
 10
0
 20
1.27598
 11
0.463525
 21
1.42658
  0
LINE
  8
0
 10
0.463525
 20
1.42658
 11
1.5
 21
0
  0
LINE
  8
0
 10
1.5
 20
0
 11
210
 21
0
  0
LINE
  8
0
 10
210
 20
0
 11
210
 21
415
  0
LINE
  8
0
 10
210
 20
415
 11
189
 21
436
  0
LINE
  8
0
 10
189
 20
436
 11
21
 21
436
  0
LINE
  8
0
 10
21
 20
436
 11
0
 21
415
  0
LINE
  8
0
 10
0
 20
415
 11
0
 21
1.27598
  0
LINE
  8
0
 10
10.7865
 20
209.118
 11
10.7865
 21
210.882
  0
LINE
  8
0
 10
10.7865
 20
210.882
 11
12.4635
 21
211.427
  0
LINE
  8
0
 10
12.4635
 20
211.427
 11
13.5
 21
210
  0
LINE
  8
0
 10
13.5
 20
210
 11
12.4635
 21
208.573
  0
LINE
  8
0
 10
12.4635
 20
208.573
 11
10.7865
 21
209.118
  0
LINE
  8
0
 10
10.7865
 20
229.118
 11
10.7865
 21
230.882
  0
LINE
  8
0
 10
10.7865
 20
230.882
 11
12.4635
 21
231.427
  0
LINE
  8
0
 10
12.4635
 20
231.427
 11
13.5
 21
230
  0
LINE
  8
0
 10
13.5
 20
230
 11
12.4635
 21
228.573
  0
LINE
  8
0
 10
12.4635
 20
228.573
 11
10.7865
 21
229.118
  0
LINE
  8
0
 10
23.7865
 20
4.11832
 11
23.7865
 21
5.88168
  0
LINE
  8
0
 10
23.7865
 20
5.88168
 11
25.4635
 21
6.42658
  0
LINE
  8
0
 10
25.4635
 20
6.42658
 11
26.5
 21
5
  0
LINE
  8
0
 10
26.5
 20
5
 11
25.4635
 21
3.57341
  0
LINE
  8
0
 10
25.4635
 20
3.57341
 11
23.7865
 21
4.11832
  0
LINE
  8
0
 10
25.7865
 20
49.1183
 11
25.7865
 21
50.8817
  0
LINE
  8
0
 10
25.7865
 20
50.8817
 11
27.4635
 21
51.4266
  0
LINE
  8
0
 10
27.4635
 20
51.4266
 11
28.5
 21
50
  0
LINE
  8
0
 10
28.5
 20
50
 11
27.4635
 21
48.5734
  0
LINE
  8
0
 10
27.4635
 20
48.5734
 11
25.7865
 21
49.1183
  0
LINE
  8
0
 10
25.7865
 20
354.118
 11
25.7865
 21
355.882
  0
LINE
  8
0
 10
25.7865
 20
355.882
 11
27.4635
 21
356.427
  0
LINE
  8
0
 10
27.4635
 20
356.427
 11
28.5
 21
355
  0
LINE
  8
0
 10
28.5
 20
355
 11
27.4635
 21
353.573
  0
LINE
  8
0
 10
27.4635
 20
353.573
 11
25.7865
 21
354.118
  0
LINE
  8
0
 10
31
 20
386
 11
31
 21
416
  0
LINE
  8
0
 10
31
 20
416
 11
139
 21
416
  0
LINE
  8
0
 10
139
 20
416
 11
139
 21
386
  0
LINE
  8
0
 10
139
 20
386
 11
31
 21
386
  0
LINE
  8
0
 10
50
 20
55
 11
50
 21
315
  0
LINE
  8
0
 10
50
 20
315
 11
120
 21
315
  0
LINE
  8
0
 10
120
 20
315
 11
120
 21
55
  0
LINE
  8
0
 10
120
 20
55
 11
50
 21
55
  0
LINE
  8
0
 10
52.2865
 20
29.1183
 11
52.2865
 21
30.8817
  0
LINE
  8
0
 10
52.2865
 20
30.8817
 11
53.9635
 21
31.4266
  0
LINE
  8
0
 10
53.9635
 20
31.4266
 11
55
 21
30
  0
LINE
  8
0
 10
55
 20
30
 11
53.9635
 21
28.5734
  0
LINE
  8
0
 10
53.9635
 20
28.5734
 11
52.2865
 21
29.1183
  0
LINE
  8
0
 10
52.2865
 20
49.1183
 11
52.2865
 21
50.8817
  0
LINE
  8
0
 10
52.2865
 20
50.8817
 11
53.9635
 21
51.4266
  0
LINE
  8
0
 10
53.9635
 20
51.4266
 11
55
 21
50
  0
LINE
  8
0
 10
55
 20
50
 11
53.9635
 21
48.5734
  0
LINE
  8
0
 10
53.9635
 20
48.5734
 11
52.2865
 21
49.1183
  0
LINE
  8
0
 10
52.2865
 20
354.118
 11
52.2865
 21
355.882
  0
LINE
  8
0
 10
52.2865
 20
355.882
 11
53.9635
 21
356.427
  0
LINE
  8
0
 10
53.9635
 20
356.427
 11
55
 21
355
  0
LINE
  8
0
 10
55
 20
355
 11
53.9635
 21
353.573
  0
LINE
  8
0
 10
53.9635
 20
353.573
 11
52.2865
 21
354.118
  0
LINE
  8
0
 10
55.7865
 20
4.11832
 11
55.7865
 21
5.88168
  0
LINE
  8
0
 10
55.7865
 20
5.88168
 11
57.4635
 21
6.42658
  0
LINE
  8
0
 10
57.4635
 20
6.42658
 11
58.5
 21
5
  0
LINE
  8
0
 10
58.5
 20
5
 11
57.4635
 21
3.57341
  0
LINE
  8
0
 10
57.4635
 20
3.57341
 11
55.7865
 21
4.11832
  0
LINE
  8
0
 10
97
 20
12.5
 11
97
 21
34.5
  0
LINE
  8
0
 10
97
 20
34.5
 11
107
 21
34.5
  0
LINE
  8
0
 10
107
 20
34.5
 11
107
 21
12.5
  0
LINE
  8
0
 10
107
 20
12.5
 11
97
 21
12.5
  0
LINE
  8
0
 10
111.786
 20
4.11832
 11
111.786
 21
5.88168
  0
LINE
  8
0
 10
111.786
 20
5.88168
 11
113.464
 21
6.42658
  0
LINE
  8
0
 10
113.464
 20
6.42658
 11
114.5
 21
5
  0
LINE
  8
0
 10
114.5
 20
5
 11
113.464
 21
3.57341
  0
LINE
  8
0
 10
113.464
 20
3.57341
 11
111.786
 21
4.11832
  0
LINE
  8
0
 10
115.286
 20
29.1183
 11
115.286
 21
30.8817
  0
LINE
  8
0
 10
115.286
 20
30.8817
 11
116.964
 21
31.4266
  0
LINE
  8
0
 10
116.964
 20
31.4266
 11
118
 21
30
  0
LINE
  8
0
 10
118
 20
30
 11
116.964
 21
28.5734
  0
LINE
  8
0
 10
116.964
 20
28.5734
 11
115.286
 21
29.1183
  0
LINE
  8
0
 10
115.286
 20
49.1183
 11
115.286
 21
50.8817
  0
LINE
  8
0
 10
115.286
 20
50.8817
 11
116.964
 21
51.4266
  0
LINE
  8
0
 10
116.964
 20
51.4266
 11
118
 21
50
  0
LINE
  8
0
 10
118
 20
50
 11
116.964
 21
48.5734
  0
LINE
  8
0
 10
116.964
 20
48.5734
 11
115.286
 21
49.1183
  0
LINE
  8
0
 10
115.286
 20
354.118
 11
115.286
 21
355.882
  0
LINE
  8
0
 10
115.286
 20
355.882
 11
116.964
 21
356.427
  0
LINE
  8
0
 10
116.964
 20
356.427
 11
118
 21
355
  0
LINE
  8
0
 10
118
 20
355
 11
116.964
 21
353.573
  0
LINE
  8
0
 10
116.964
 20
353.573
 11
115.286
 21
354.118
  0
LINE
  8
0
 10
141.786
 20
49.1183
 11
141.786
 21
50.8817
  0
LINE
  8
0
 10
141.786
 20
50.8817
 11
143.464
 21
51.4266
  0
LINE
  8
0
 10
143.464
 20
51.4266
 11
144.5
 21
50
  0
LINE
  8
0
 10
144.5
 20
50
 11
143.464
 21
48.5734
  0
LINE
  8
0
 10
143.464
 20
48.5734
 11
141.786
 21
49.1183
  0
LINE
  8
0
 10
141.786
 20
354.118
 11
141.786
 21
355.882
  0
LINE
  8
0
 10
141.786
 20
355.882
 11
143.464
 21
356.427
  0
LINE
  8
0
 10
143.464
 20
356.427
 11
144.5
 21
355
  0
LINE
  8
0
 10
144.5
 20
355
 11
143.464
 21
353.573
  0
LINE
  8
0
 10
143.464
 20
353.573
 11
141.786
 21
354.118
  0
LINE
  8
0
 10
143.786
 20
4.11832
 11
143.786
 21
5.88168
  0
LINE
  8
0
 10
143.786
 20
5.88168
 11
145.464
 21
6.42658
  0
LINE
  8
0
 10
145.464
 20
6.42658
 11
146.5
 21
5
  0
LINE
  8
0
 10
146.5
 20
5
 11
145.464
 21
3.57341
  0
LINE
  8
0
 10
145.464
 20
3.57341
 11
143.786
 21
4.11832
  0
ENDSEC
  0
SECTION
  2
OBJECTS
  0
DICTIONARY
  0
ENDSEC
  0
EOF
