solid OpenSCAD_Model
  facet normal -0.809016 -0.587786 0
    outer loop
      vertex 26.5 5 0
      vertex 25.4635 6.42658 10
      vertex 25.4635 6.42658 0
    endloop
  endfacet
  facet normal -0.809016 -0.587786 0
    outer loop
      vertex 25.4635 6.42658 10
      vertex 26.5 5 0
      vertex 26.5 5 10
    endloop
  endfacet
  facet normal 1 -0 0
    outer loop
      vertex 23.7865 4.11832 10
      vertex 23.7865 5.88168 0
      vertex 23.7865 5.88168 10
    endloop
  endfacet
  facet normal 1 0 0
    outer loop
      vertex 23.7865 5.88168 0
      vertex 23.7865 4.11832 10
      vertex 23.7865 4.11832 0
    endloop
  endfacet
  facet normal 0.309017 -0.951056 0
    outer loop
      vertex 23.7865 5.88168 0
      vertex 25.4635 6.42658 10
      vertex 23.7865 5.88168 10
    endloop
  endfacet
  facet normal 0.309017 -0.951056 0
    outer loop
      vertex 25.4635 6.42658 10
      vertex 23.7865 5.88168 0
      vertex 25.4635 6.42658 0
    endloop
  endfacet
  facet normal 0.309017 0.951056 -0
    outer loop
      vertex 25.4635 3.57341 0
      vertex 23.7865 4.11832 10
      vertex 25.4635 3.57341 10
    endloop
  endfacet
  facet normal 0.309017 0.951056 0
    outer loop
      vertex 23.7865 4.11832 10
      vertex 25.4635 3.57341 0
      vertex 23.7865 4.11832 0
    endloop
  endfacet
  facet normal -0.809017 0.587786 0
    outer loop
      vertex 25.4635 3.57341 0
      vertex 26.5 5 10
      vertex 26.5 5 0
    endloop
  endfacet
  facet normal -0.809017 0.587786 0
    outer loop
      vertex 26.5 5 10
      vertex 25.4635 3.57341 0
      vertex 25.4635 3.57341 10
    endloop
  endfacet
  facet normal -0.809016 -0.587787 0
    outer loop
      vertex 28.5 50 0
      vertex 27.4635 51.4266 10
      vertex 27.4635 51.4266 0
    endloop
  endfacet
  facet normal -0.809016 -0.587787 0
    outer loop
      vertex 27.4635 51.4266 10
      vertex 28.5 50 0
      vertex 28.5 50 10
    endloop
  endfacet
  facet normal 1 -0 0
    outer loop
      vertex 25.7865 49.1183 10
      vertex 25.7865 50.8817 0
      vertex 25.7865 50.8817 10
    endloop
  endfacet
  facet normal 1 0 0
    outer loop
      vertex 25.7865 50.8817 0
      vertex 25.7865 49.1183 10
      vertex 25.7865 49.1183 0
    endloop
  endfacet
  facet normal 0.309017 -0.951056 0
    outer loop
      vertex 25.7865 50.8817 0
      vertex 27.4635 51.4266 10
      vertex 25.7865 50.8817 10
    endloop
  endfacet
  facet normal 0.309017 -0.951056 0
    outer loop
      vertex 27.4635 51.4266 10
      vertex 25.7865 50.8817 0
      vertex 27.4635 51.4266 0
    endloop
  endfacet
  facet normal 0.309017 0.951056 -0
    outer loop
      vertex 27.4635 48.5734 0
      vertex 25.7865 49.1183 10
      vertex 27.4635 48.5734 10
    endloop
  endfacet
  facet normal 0.309017 0.951056 0
    outer loop
      vertex 25.7865 49.1183 10
      vertex 27.4635 48.5734 0
      vertex 25.7865 49.1183 0
    endloop
  endfacet
  facet normal -0.809017 0.587785 0
    outer loop
      vertex 27.4635 48.5734 0
      vertex 28.5 50 10
      vertex 28.5 50 0
    endloop
  endfacet
  facet normal -0.809017 0.587785 0
    outer loop
      vertex 28.5 50 10
      vertex 27.4635 48.5734 0
      vertex 27.4635 48.5734 10
    endloop
  endfacet
  facet normal -0.809016 -0.587786 0
    outer loop
      vertex 58.5 5 0
      vertex 57.4635 6.42658 10
      vertex 57.4635 6.42658 0
    endloop
  endfacet
  facet normal -0.809016 -0.587786 0
    outer loop
      vertex 57.4635 6.42658 10
      vertex 58.5 5 0
      vertex 58.5 5 10
    endloop
  endfacet
  facet normal 1 -0 0
    outer loop
      vertex 55.7865 4.11832 10
      vertex 55.7865 5.88168 0
      vertex 55.7865 5.88168 10
    endloop
  endfacet
  facet normal 1 0 0
    outer loop
      vertex 55.7865 5.88168 0
      vertex 55.7865 4.11832 10
      vertex 55.7865 4.11832 0
    endloop
  endfacet
  facet normal 0.309017 -0.951056 0
    outer loop
      vertex 55.7865 5.88168 0
      vertex 57.4635 6.42658 10
      vertex 55.7865 5.88168 10
    endloop
  endfacet
  facet normal 0.309017 -0.951056 0
    outer loop
      vertex 57.4635 6.42658 10
      vertex 55.7865 5.88168 0
      vertex 57.4635 6.42658 0
    endloop
  endfacet
  facet normal -0.809017 0.587786 0
    outer loop
      vertex 57.4635 3.57341 0
      vertex 58.5 5 10
      vertex 58.5 5 0
    endloop
  endfacet
  facet normal -0.809017 0.587786 0
    outer loop
      vertex 58.5 5 10
      vertex 57.4635 3.57341 0
      vertex 57.4635 3.57341 10
    endloop
  endfacet
  facet normal 0.309017 0.951056 -0
    outer loop
      vertex 57.4635 3.57341 0
      vertex 55.7865 4.11832 10
      vertex 57.4635 3.57341 10
    endloop
  endfacet
  facet normal 0.309017 0.951056 0
    outer loop
      vertex 55.7865 4.11832 10
      vertex 57.4635 3.57341 0
      vertex 55.7865 4.11832 0
    endloop
  endfacet
  facet normal -0.809016 -0.587787 0
    outer loop
      vertex 55 50 0
      vertex 53.9635 51.4266 10
      vertex 53.9635 51.4266 0
    endloop
  endfacet
  facet normal -0.809016 -0.587787 0
    outer loop
      vertex 53.9635 51.4266 10
      vertex 55 50 0
      vertex 55 50 10
    endloop
  endfacet
  facet normal 1 -0 0
    outer loop
      vertex 52.2865 49.1183 10
      vertex 52.2865 50.8817 0
      vertex 52.2865 50.8817 10
    endloop
  endfacet
  facet normal 1 0 0
    outer loop
      vertex 52.2865 50.8817 0
      vertex 52.2865 49.1183 10
      vertex 52.2865 49.1183 0
    endloop
  endfacet
  facet normal 0.309017 -0.951056 0
    outer loop
      vertex 52.2865 50.8817 0
      vertex 53.9635 51.4266 10
      vertex 52.2865 50.8817 10
    endloop
  endfacet
  facet normal 0.309017 -0.951056 0
    outer loop
      vertex 53.9635 51.4266 10
      vertex 52.2865 50.8817 0
      vertex 53.9635 51.4266 0
    endloop
  endfacet
  facet normal 0.309017 0.951056 -0
    outer loop
      vertex 53.9635 48.5734 0
      vertex 52.2865 49.1183 10
      vertex 53.9635 48.5734 10
    endloop
  endfacet
  facet normal 0.309017 0.951056 0
    outer loop
      vertex 52.2865 49.1183 10
      vertex 53.9635 48.5734 0
      vertex 52.2865 49.1183 0
    endloop
  endfacet
  facet normal -0.809017 0.587785 0
    outer loop
      vertex 53.9635 48.5734 0
      vertex 55 50 10
      vertex 55 50 0
    endloop
  endfacet
  facet normal -0.809017 0.587785 0
    outer loop
      vertex 55 50 10
      vertex 53.9635 48.5734 0
      vertex 53.9635 48.5734 10
    endloop
  endfacet
  facet normal -0.809016 -0.587787 0
    outer loop
      vertex 118 50 0
      vertex 116.964 51.4266 10
      vertex 116.964 51.4266 0
    endloop
  endfacet
  facet normal -0.809016 -0.587787 0
    outer loop
      vertex 116.964 51.4266 10
      vertex 118 50 0
      vertex 118 50 10
    endloop
  endfacet
  facet normal 1 -0 0
    outer loop
      vertex 115.286 49.1183 10
      vertex 115.286 50.8817 0
      vertex 115.286 50.8817 10
    endloop
  endfacet
  facet normal 1 0 0
    outer loop
      vertex 115.286 50.8817 0
      vertex 115.286 49.1183 10
      vertex 115.286 49.1183 0
    endloop
  endfacet
  facet normal 0.309017 -0.951056 0
    outer loop
      vertex 115.286 50.8817 0
      vertex 116.964 51.4266 10
      vertex 115.286 50.8817 10
    endloop
  endfacet
  facet normal 0.309017 -0.951056 0
    outer loop
      vertex 116.964 51.4266 10
      vertex 115.286 50.8817 0
      vertex 116.964 51.4266 0
    endloop
  endfacet
  facet normal -0.809017 0.587785 0
    outer loop
      vertex 116.964 48.5734 0
      vertex 118 50 10
      vertex 118 50 0
    endloop
  endfacet
  facet normal -0.809017 0.587785 0
    outer loop
      vertex 118 50 10
      vertex 116.964 48.5734 0
      vertex 116.964 48.5734 10
    endloop
  endfacet
  facet normal 0.309017 0.951056 -0
    outer loop
      vertex 116.964 48.5734 0
      vertex 115.286 49.1183 10
      vertex 116.964 48.5734 10
    endloop
  endfacet
  facet normal 0.309017 0.951056 0
    outer loop
      vertex 115.286 49.1183 10
      vertex 116.964 48.5734 0
      vertex 115.286 49.1183 0
    endloop
  endfacet
  facet normal -0.809018 -0.587784 0
    outer loop
      vertex 144.5 50 0
      vertex 143.464 51.4266 10
      vertex 143.464 51.4266 0
    endloop
  endfacet
  facet normal -0.809018 -0.587784 0
    outer loop
      vertex 143.464 51.4266 10
      vertex 144.5 50 0
      vertex 144.5 50 10
    endloop
  endfacet
  facet normal 1 -0 0
    outer loop
      vertex 141.786 49.1183 10
      vertex 141.786 50.8817 0
      vertex 141.786 50.8817 10
    endloop
  endfacet
  facet normal 1 0 0
    outer loop
      vertex 141.786 50.8817 0
      vertex 141.786 49.1183 10
      vertex 141.786 49.1183 0
    endloop
  endfacet
  facet normal 0.309015 -0.951057 0
    outer loop
      vertex 141.786 50.8817 0
      vertex 143.464 51.4266 10
      vertex 141.786 50.8817 10
    endloop
  endfacet
  facet normal 0.309015 -0.951057 0
    outer loop
      vertex 143.464 51.4266 10
      vertex 141.786 50.8817 0
      vertex 143.464 51.4266 0
    endloop
  endfacet
  facet normal 0.309015 0.951057 -0
    outer loop
      vertex 143.464 48.5734 0
      vertex 141.786 49.1183 10
      vertex 143.464 48.5734 10
    endloop
  endfacet
  facet normal 0.309015 0.951057 0
    outer loop
      vertex 141.786 49.1183 10
      vertex 143.464 48.5734 0
      vertex 141.786 49.1183 0
    endloop
  endfacet
  facet normal -0.809019 0.587783 0
    outer loop
      vertex 143.464 48.5734 0
      vertex 144.5 50 10
      vertex 144.5 50 0
    endloop
  endfacet
  facet normal -0.809019 0.587783 0
    outer loop
      vertex 144.5 50 10
      vertex 143.464 48.5734 0
      vertex 143.464 48.5734 10
    endloop
  endfacet
  facet normal -0.809016 -0.587786 0
    outer loop
      vertex 55 30 0
      vertex 53.9635 31.4266 10
      vertex 53.9635 31.4266 0
    endloop
  endfacet
  facet normal -0.809016 -0.587786 0
    outer loop
      vertex 53.9635 31.4266 10
      vertex 55 30 0
      vertex 55 30 10
    endloop
  endfacet
  facet normal 1 -0 0
    outer loop
      vertex 52.2865 29.1183 10
      vertex 52.2865 30.8817 0
      vertex 52.2865 30.8817 10
    endloop
  endfacet
  facet normal 1 0 0
    outer loop
      vertex 52.2865 30.8817 0
      vertex 52.2865 29.1183 10
      vertex 52.2865 29.1183 0
    endloop
  endfacet
  facet normal 0.309017 -0.951056 0
    outer loop
      vertex 52.2865 30.8817 0
      vertex 53.9635 31.4266 10
      vertex 52.2865 30.8817 10
    endloop
  endfacet
  facet normal 0.309017 -0.951056 0
    outer loop
      vertex 53.9635 31.4266 10
      vertex 52.2865 30.8817 0
      vertex 53.9635 31.4266 0
    endloop
  endfacet
  facet normal -0.809017 0.587785 0
    outer loop
      vertex 53.9635 28.5734 0
      vertex 55 30 10
      vertex 55 30 0
    endloop
  endfacet
  facet normal -0.809017 0.587785 0
    outer loop
      vertex 55 30 10
      vertex 53.9635 28.5734 0
      vertex 53.9635 28.5734 10
    endloop
  endfacet
  facet normal 0.309017 0.951056 -0
    outer loop
      vertex 53.9635 28.5734 0
      vertex 52.2865 29.1183 10
      vertex 53.9635 28.5734 10
    endloop
  endfacet
  facet normal 0.309017 0.951056 0
    outer loop
      vertex 52.2865 29.1183 10
      vertex 53.9635 28.5734 0
      vertex 52.2865 29.1183 0
    endloop
  endfacet
  facet normal -0.809016 -0.587786 0
    outer loop
      vertex 118 30 0
      vertex 116.964 31.4266 10
      vertex 116.964 31.4266 0
    endloop
  endfacet
  facet normal -0.809016 -0.587786 0
    outer loop
      vertex 116.964 31.4266 10
      vertex 118 30 0
      vertex 118 30 10
    endloop
  endfacet
  facet normal 1 -0 0
    outer loop
      vertex 115.286 29.1183 10
      vertex 115.286 30.8817 0
      vertex 115.286 30.8817 10
    endloop
  endfacet
  facet normal 1 0 0
    outer loop
      vertex 115.286 30.8817 0
      vertex 115.286 29.1183 10
      vertex 115.286 29.1183 0
    endloop
  endfacet
  facet normal 0.309017 -0.951056 0
    outer loop
      vertex 115.286 30.8817 0
      vertex 116.964 31.4266 10
      vertex 115.286 30.8817 10
    endloop
  endfacet
  facet normal 0.309017 -0.951056 0
    outer loop
      vertex 116.964 31.4266 10
      vertex 115.286 30.8817 0
      vertex 116.964 31.4266 0
    endloop
  endfacet
  facet normal 0.309017 0.951056 -0
    outer loop
      vertex 116.964 28.5734 0
      vertex 115.286 29.1183 10
      vertex 116.964 28.5734 10
    endloop
  endfacet
  facet normal 0.309017 0.951056 0
    outer loop
      vertex 115.286 29.1183 10
      vertex 116.964 28.5734 0
      vertex 115.286 29.1183 0
    endloop
  endfacet
  facet normal -0.809017 0.587785 0
    outer loop
      vertex 116.964 28.5734 0
      vertex 118 30 10
      vertex 118 30 0
    endloop
  endfacet
  facet normal -0.809017 0.587785 0
    outer loop
      vertex 118 30 10
      vertex 116.964 28.5734 0
      vertex 116.964 28.5734 10
    endloop
  endfacet
  facet normal -0.809015 -0.587789 0
    outer loop
      vertex 28.5 355 0
      vertex 27.4635 356.427 10
      vertex 27.4635 356.427 0
    endloop
  endfacet
  facet normal -0.809015 -0.587789 0
    outer loop
      vertex 27.4635 356.427 10
      vertex 28.5 355 0
      vertex 28.5 355 10
    endloop
  endfacet
  facet normal 1 -0 0
    outer loop
      vertex 25.7865 354.118 10
      vertex 25.7865 355.882 0
      vertex 25.7865 355.882 10
    endloop
  endfacet
  facet normal 1 0 0
    outer loop
      vertex 25.7865 355.882 0
      vertex 25.7865 354.118 10
      vertex 25.7865 354.118 0
    endloop
  endfacet
  facet normal 0.309009 -0.951059 0
    outer loop
      vertex 25.7865 355.882 0
      vertex 27.4635 356.427 10
      vertex 25.7865 355.882 10
    endloop
  endfacet
  facet normal 0.309009 -0.951059 0
    outer loop
      vertex 27.4635 356.427 10
      vertex 25.7865 355.882 0
      vertex 27.4635 356.427 0
    endloop
  endfacet
  facet normal -0.809015 0.587789 0
    outer loop
      vertex 27.4635 353.573 0
      vertex 28.5 355 10
      vertex 28.5 355 0
    endloop
  endfacet
  facet normal -0.809015 0.587789 0
    outer loop
      vertex 28.5 355 10
      vertex 27.4635 353.573 0
      vertex 27.4635 353.573 10
    endloop
  endfacet
  facet normal 0.309009 0.951059 -0
    outer loop
      vertex 27.4635 353.573 0
      vertex 25.7865 354.118 10
      vertex 27.4635 353.573 10
    endloop
  endfacet
  facet normal 0.309009 0.951059 0
    outer loop
      vertex 25.7865 354.118 10
      vertex 27.4635 353.573 0
      vertex 25.7865 354.118 0
    endloop
  endfacet
  facet normal -0.809015 -0.587789 0
    outer loop
      vertex 55 355 0
      vertex 53.9635 356.427 10
      vertex 53.9635 356.427 0
    endloop
  endfacet
  facet normal -0.809015 -0.587789 0
    outer loop
      vertex 53.9635 356.427 10
      vertex 55 355 0
      vertex 55 355 10
    endloop
  endfacet
  facet normal 1 -0 0
    outer loop
      vertex 52.2865 354.118 10
      vertex 52.2865 355.882 0
      vertex 52.2865 355.882 10
    endloop
  endfacet
  facet normal 1 0 0
    outer loop
      vertex 52.2865 355.882 0
      vertex 52.2865 354.118 10
      vertex 52.2865 354.118 0
    endloop
  endfacet
  facet normal 0.30901 -0.951059 0
    outer loop
      vertex 52.2865 355.882 0
      vertex 53.9635 356.427 10
      vertex 52.2865 355.882 10
    endloop
  endfacet
  facet normal 0.30901 -0.951059 0
    outer loop
      vertex 53.9635 356.427 10
      vertex 52.2865 355.882 0
      vertex 53.9635 356.427 0
    endloop
  endfacet
  facet normal -0.809015 0.587789 0
    outer loop
      vertex 53.9635 353.573 0
      vertex 55 355 10
      vertex 55 355 0
    endloop
  endfacet
  facet normal -0.809015 0.587789 0
    outer loop
      vertex 55 355 10
      vertex 53.9635 353.573 0
      vertex 53.9635 353.573 10
    endloop
  endfacet
  facet normal 0.30901 0.951059 -0
    outer loop
      vertex 53.9635 353.573 0
      vertex 52.2865 354.118 10
      vertex 53.9635 353.573 10
    endloop
  endfacet
  facet normal 0.30901 0.951059 0
    outer loop
      vertex 52.2865 354.118 10
      vertex 53.9635 353.573 0
      vertex 52.2865 354.118 0
    endloop
  endfacet
  facet normal -0.809015 -0.587789 0
    outer loop
      vertex 118 355 0
      vertex 116.964 356.427 10
      vertex 116.964 356.427 0
    endloop
  endfacet
  facet normal -0.809015 -0.587789 0
    outer loop
      vertex 116.964 356.427 10
      vertex 118 355 0
      vertex 118 355 10
    endloop
  endfacet
  facet normal 1 -0 0
    outer loop
      vertex 115.286 354.118 10
      vertex 115.286 355.882 0
      vertex 115.286 355.882 10
    endloop
  endfacet
  facet normal 1 0 0
    outer loop
      vertex 115.286 355.882 0
      vertex 115.286 354.118 10
      vertex 115.286 354.118 0
    endloop
  endfacet
  facet normal 0.30901 -0.951059 0
    outer loop
      vertex 115.286 355.882 0
      vertex 116.964 356.427 10
      vertex 115.286 355.882 10
    endloop
  endfacet
  facet normal 0.30901 -0.951059 0
    outer loop
      vertex 116.964 356.427 10
      vertex 115.286 355.882 0
      vertex 116.964 356.427 0
    endloop
  endfacet
  facet normal 0.30901 0.951059 -0
    outer loop
      vertex 116.964 353.573 0
      vertex 115.286 354.118 10
      vertex 116.964 353.573 10
    endloop
  endfacet
  facet normal 0.30901 0.951059 0
    outer loop
      vertex 115.286 354.118 10
      vertex 116.964 353.573 0
      vertex 115.286 354.118 0
    endloop
  endfacet
  facet normal -0.809015 0.587789 0
    outer loop
      vertex 116.964 353.573 0
      vertex 118 355 10
      vertex 118 355 0
    endloop
  endfacet
  facet normal -0.809015 0.587789 0
    outer loop
      vertex 118 355 10
      vertex 116.964 353.573 0
      vertex 116.964 353.573 10
    endloop
  endfacet
  facet normal -0.809017 -0.587786 0
    outer loop
      vertex 144.5 355 0
      vertex 143.464 356.427 10
      vertex 143.464 356.427 0
    endloop
  endfacet
  facet normal -0.809017 -0.587786 0
    outer loop
      vertex 143.464 356.427 10
      vertex 144.5 355 0
      vertex 144.5 355 10
    endloop
  endfacet
  facet normal 1 -0 0
    outer loop
      vertex 141.786 354.118 10
      vertex 141.786 355.882 0
      vertex 141.786 355.882 10
    endloop
  endfacet
  facet normal 1 0 0
    outer loop
      vertex 141.786 355.882 0
      vertex 141.786 354.118 10
      vertex 141.786 354.118 0
    endloop
  endfacet
  facet normal 0.309007 -0.95106 0
    outer loop
      vertex 141.786 355.882 0
      vertex 143.464 356.427 10
      vertex 141.786 355.882 10
    endloop
  endfacet
  facet normal 0.309007 -0.95106 0
    outer loop
      vertex 143.464 356.427 10
      vertex 141.786 355.882 0
      vertex 143.464 356.427 0
    endloop
  endfacet
  facet normal -0.809017 0.587786 0
    outer loop
      vertex 143.464 353.573 0
      vertex 144.5 355 10
      vertex 144.5 355 0
    endloop
  endfacet
  facet normal -0.809017 0.587786 0
    outer loop
      vertex 144.5 355 10
      vertex 143.464 353.573 0
      vertex 143.464 353.573 10
    endloop
  endfacet
  facet normal 0.309007 0.95106 -0
    outer loop
      vertex 143.464 353.573 0
      vertex 141.786 354.118 10
      vertex 143.464 353.573 10
    endloop
  endfacet
  facet normal 0.309007 0.95106 0
    outer loop
      vertex 141.786 354.118 10
      vertex 143.464 353.573 0
      vertex 141.786 354.118 0
    endloop
  endfacet
  facet normal -0.809018 -0.587784 0
    outer loop
      vertex 13.5 210 0
      vertex 12.4635 211.427 10
      vertex 12.4635 211.427 0
    endloop
  endfacet
  facet normal -0.809018 -0.587784 0
    outer loop
      vertex 12.4635 211.427 10
      vertex 13.5 210 0
      vertex 13.5 210 10
    endloop
  endfacet
  facet normal 1 -0 0
    outer loop
      vertex 10.7865 209.118 10
      vertex 10.7865 210.882 0
      vertex 10.7865 210.882 10
    endloop
  endfacet
  facet normal 1 0 0
    outer loop
      vertex 10.7865 210.882 0
      vertex 10.7865 209.118 10
      vertex 10.7865 209.118 0
    endloop
  endfacet
  facet normal 0.309017 -0.951057 0
    outer loop
      vertex 10.7865 210.882 0
      vertex 12.4635 211.427 10
      vertex 10.7865 210.882 10
    endloop
  endfacet
  facet normal 0.309017 -0.951057 0
    outer loop
      vertex 12.4635 211.427 10
      vertex 10.7865 210.882 0
      vertex 12.4635 211.427 0
    endloop
  endfacet
  facet normal 0.309017 0.951057 -0
    outer loop
      vertex 12.4635 208.573 0
      vertex 10.7865 209.118 10
      vertex 12.4635 208.573 10
    endloop
  endfacet
  facet normal 0.309017 0.951057 0
    outer loop
      vertex 10.7865 209.118 10
      vertex 12.4635 208.573 0
      vertex 10.7865 209.118 0
    endloop
  endfacet
  facet normal -0.809018 0.587784 0
    outer loop
      vertex 12.4635 208.573 0
      vertex 13.5 210 10
      vertex 13.5 210 0
    endloop
  endfacet
  facet normal -0.809018 0.587784 0
    outer loop
      vertex 13.5 210 10
      vertex 12.4635 208.573 0
      vertex 12.4635 208.573 10
    endloop
  endfacet
  facet normal -0.809018 -0.587784 0
    outer loop
      vertex 13.5 230 0
      vertex 12.4635 231.427 10
      vertex 12.4635 231.427 0
    endloop
  endfacet
  facet normal -0.809018 -0.587784 0
    outer loop
      vertex 12.4635 231.427 10
      vertex 13.5 230 0
      vertex 13.5 230 10
    endloop
  endfacet
  facet normal 1 -0 0
    outer loop
      vertex 10.7865 229.118 10
      vertex 10.7865 230.882 0
      vertex 10.7865 230.882 10
    endloop
  endfacet
  facet normal 1 0 0
    outer loop
      vertex 10.7865 230.882 0
      vertex 10.7865 229.118 10
      vertex 10.7865 229.118 0
    endloop
  endfacet
  facet normal 0.309017 -0.951057 0
    outer loop
      vertex 10.7865 230.882 0
      vertex 12.4635 231.427 10
      vertex 10.7865 230.882 10
    endloop
  endfacet
  facet normal 0.309017 -0.951057 0
    outer loop
      vertex 12.4635 231.427 10
      vertex 10.7865 230.882 0
      vertex 12.4635 231.427 0
    endloop
  endfacet
  facet normal -0.809018 0.587784 0
    outer loop
      vertex 12.4635 228.573 0
      vertex 13.5 230 10
      vertex 13.5 230 0
    endloop
  endfacet
  facet normal -0.809018 0.587784 0
    outer loop
      vertex 13.5 230 10
      vertex 12.4635 228.573 0
      vertex 12.4635 228.573 10
    endloop
  endfacet
  facet normal 0.309017 0.951057 -0
    outer loop
      vertex 12.4635 228.573 0
      vertex 10.7865 229.118 10
      vertex 12.4635 228.573 10
    endloop
  endfacet
  facet normal 0.309017 0.951057 0
    outer loop
      vertex 10.7865 229.118 10
      vertex 12.4635 228.573 0
      vertex 10.7865 229.118 0
    endloop
  endfacet
  facet normal -0.809019 -0.587783 0
    outer loop
      vertex 146.5 5 0
      vertex 145.464 6.42658 10
      vertex 145.464 6.42658 0
    endloop
  endfacet
  facet normal -0.809019 -0.587783 0
    outer loop
      vertex 145.464 6.42658 10
      vertex 146.5 5 0
      vertex 146.5 5 10
    endloop
  endfacet
  facet normal 1 -0 0
    outer loop
      vertex 143.786 4.11832 10
      vertex 143.786 5.88168 0
      vertex 143.786 5.88168 10
    endloop
  endfacet
  facet normal 1 0 0
    outer loop
      vertex 143.786 5.88168 0
      vertex 143.786 4.11832 10
      vertex 143.786 4.11832 0
    endloop
  endfacet
  facet normal 0.309015 -0.951057 0
    outer loop
      vertex 143.786 5.88168 0
      vertex 145.464 6.42658 10
      vertex 143.786 5.88168 10
    endloop
  endfacet
  facet normal 0.309015 -0.951057 0
    outer loop
      vertex 145.464 6.42658 10
      vertex 143.786 5.88168 0
      vertex 145.464 6.42658 0
    endloop
  endfacet
  facet normal 0.309015 0.951057 -0
    outer loop
      vertex 145.464 3.57341 0
      vertex 143.786 4.11832 10
      vertex 145.464 3.57341 10
    endloop
  endfacet
  facet normal 0.309015 0.951057 0
    outer loop
      vertex 143.786 4.11832 10
      vertex 145.464 3.57341 0
      vertex 143.786 4.11832 0
    endloop
  endfacet
  facet normal -0.809019 0.587783 0
    outer loop
      vertex 145.464 3.57341 0
      vertex 146.5 5 10
      vertex 146.5 5 0
    endloop
  endfacet
  facet normal -0.809019 0.587783 0
    outer loop
      vertex 146.5 5 10
      vertex 145.464 3.57341 0
      vertex 145.464 3.57341 10
    endloop
  endfacet
  facet normal -0.809016 -0.587786 0
    outer loop
      vertex 114.5 5 0
      vertex 113.464 6.42658 10
      vertex 113.464 6.42658 0
    endloop
  endfacet
  facet normal -0.809016 -0.587786 0
    outer loop
      vertex 113.464 6.42658 10
      vertex 114.5 5 0
      vertex 114.5 5 10
    endloop
  endfacet
  facet normal 1 -0 0
    outer loop
      vertex 111.786 4.11832 10
      vertex 111.786 5.88168 0
      vertex 111.786 5.88168 10
    endloop
  endfacet
  facet normal 1 0 0
    outer loop
      vertex 111.786 5.88168 0
      vertex 111.786 4.11832 10
      vertex 111.786 4.11832 0
    endloop
  endfacet
  facet normal 0.309017 -0.951056 0
    outer loop
      vertex 111.786 5.88168 0
      vertex 113.464 6.42658 10
      vertex 111.786 5.88168 10
    endloop
  endfacet
  facet normal 0.309017 -0.951056 0
    outer loop
      vertex 113.464 6.42658 10
      vertex 111.786 5.88168 0
      vertex 113.464 6.42658 0
    endloop
  endfacet
  facet normal 0.309017 0.951056 -0
    outer loop
      vertex 113.464 3.57341 0
      vertex 111.786 4.11832 10
      vertex 113.464 3.57341 10
    endloop
  endfacet
  facet normal 0.309017 0.951056 0
    outer loop
      vertex 111.786 4.11832 10
      vertex 113.464 3.57341 0
      vertex 111.786 4.11832 0
    endloop
  endfacet
  facet normal -0.809017 0.587786 0
    outer loop
      vertex 113.464 3.57341 0
      vertex 114.5 5 10
      vertex 114.5 5 0
    endloop
  endfacet
  facet normal -0.809017 0.587786 0
    outer loop
      vertex 114.5 5 10
      vertex 113.464 3.57341 0
      vertex 113.464 3.57341 10
    endloop
  endfacet
  facet normal -0.809017 -0.587786 0
    outer loop
      vertex 1.5 0 0
      vertex 0.463525 1.42658 10
      vertex 0.463525 1.42658 0
    endloop
  endfacet
  facet normal -0.809017 -0.587786 0
    outer loop
      vertex 0.463525 1.42658 10
      vertex 1.5 0 0
      vertex 1.5 0 10
    endloop
  endfacet
  facet normal 0.309017 -0.951056 0
    outer loop
      vertex 0 1.27598 0
      vertex 0.463525 1.42658 10
      vertex 0 1.27598 10
    endloop
  endfacet
  facet normal 0.309017 -0.951056 0
    outer loop
      vertex 0.463525 1.42658 10
      vertex 0 1.27598 0
      vertex 0.463525 1.42658 0
    endloop
  endfacet
  facet normal 0 0 -1
    outer loop
      vertex 12.4635 211.427 0
      vertex 13.5 230 0
      vertex 13.5 210 0
    endloop
  endfacet
  facet normal 0 0 -1
    outer loop
      vertex 12.4635 211.427 0
      vertex 12.4635 228.573 0
      vertex 13.5 230 0
    endloop
  endfacet
  facet normal 0 0 -1
    outer loop
      vertex 10.7865 210.882 0
      vertex 12.4635 228.573 0
      vertex 12.4635 211.427 0
    endloop
  endfacet
  facet normal -0 0 -1
    outer loop
      vertex 12.4635 228.573 0
      vertex 10.7865 210.882 0
      vertex 10.7865 229.118 0
    endloop
  endfacet
  facet normal 0 0 -1
    outer loop
      vertex 10.7865 230.882 0
      vertex 50 315 0
      vertex 12.4635 231.427 0
    endloop
  endfacet
  facet normal -0 0 -1
    outer loop
      vertex 50 315 0
      vertex 10.7865 230.882 0
      vertex 25.7865 354.118 0
    endloop
  endfacet
  facet normal -0 0 -1
    outer loop
      vertex 25.7865 354.118 0
      vertex 10.7865 230.882 0
      vertex 0 415 0
    endloop
  endfacet
  facet normal -0 0 -1
    outer loop
      vertex 25.7865 50.8817 0
      vertex 0 1.27598 0
      vertex 10.7865 209.118 0
    endloop
  endfacet
  facet normal -0 0 -1
    outer loop
      vertex 10.7865 209.118 0
      vertex 0 1.27598 0
      vertex 10.7865 230.882 0
    endloop
  endfacet
  facet normal 0 0 -1
    outer loop
      vertex 25.7865 354.118 0
      vertex 0 415 0
      vertex 21 436 0
    endloop
  endfacet
  facet normal 0 0 -1
    outer loop
      vertex 0 415 0
      vertex 10.7865 230.882 0
      vertex 0 1.27598 0
    endloop
  endfacet
  facet normal 0 0 -1
    outer loop
      vertex 50 55 0
      vertex 13.5 210 0
      vertex 50 315 0
    endloop
  endfacet
  facet normal 0 0 -1
    outer loop
      vertex 13.5 230 0
      vertex 50 315 0
      vertex 13.5 210 0
    endloop
  endfacet
  facet normal 0 0 -1
    outer loop
      vertex 12.4635 208.573 0
      vertex 27.4635 51.4266 0
      vertex 25.7865 50.8817 0
    endloop
  endfacet
  facet normal 0 0 -1
    outer loop
      vertex 50 315 0
      vertex 27.4635 353.573 0
      vertex 28.5 355 0
    endloop
  endfacet
  facet normal -0 0 -1
    outer loop
      vertex 52.2865 29.1183 0
      vertex 25.4635 6.42658 0
      vertex 27.4635 48.5734 0
    endloop
  endfacet
  facet normal 0 0 -1
    outer loop
      vertex 0.463525 1.42658 0
      vertex 23.7865 5.88168 0
      vertex 1.5 0 0
    endloop
  endfacet
  facet normal -0 0 -1
    outer loop
      vertex 23.7865 5.88168 0
      vertex 0.463525 1.42658 0
      vertex 25.7865 49.1183 0
    endloop
  endfacet
  facet normal 0 0 -1
    outer loop
      vertex 23.7865 5.88168 0
      vertex 25.7865 49.1183 0
      vertex 25.4635 6.42658 0
    endloop
  endfacet
  facet normal -0 0 -1
    outer loop
      vertex 27.4635 48.5734 0
      vertex 25.4635 6.42658 0
      vertex 25.7865 49.1183 0
    endloop
  endfacet
  facet normal -0 0 -1
    outer loop
      vertex 141.786 354.118 0
      vertex 116.964 353.573 0
      vertex 118 355 0
    endloop
  endfacet
  facet normal 0 0 -1
    outer loop
      vertex 120 315 0
      vertex 115.286 354.118 0
      vertex 116.964 353.573 0
    endloop
  endfacet
  facet normal 0 0 -1
    outer loop
      vertex 115.286 354.118 0
      vertex 55 355 0
      vertex 115.286 355.882 0
    endloop
  endfacet
  facet normal 0 0 -1
    outer loop
      vertex 53.9635 353.573 0
      vertex 115.286 354.118 0
      vertex 120 315 0
    endloop
  endfacet
  facet normal -0 0 -1
    outer loop
      vertex 115.286 354.118 0
      vertex 53.9635 353.573 0
      vertex 55 355 0
    endloop
  endfacet
  facet normal 0 0 -1
    outer loop
      vertex 50 315 0
      vertex 53.9635 353.573 0
      vertex 120 315 0
    endloop
  endfacet
  facet normal 0 0 -1
    outer loop
      vertex 28.5 355 0
      vertex 52.2865 354.118 0
      vertex 50 315 0
    endloop
  endfacet
  facet normal -0 0 -1
    outer loop
      vertex 53.9635 353.573 0
      vertex 50 315 0
      vertex 52.2865 354.118 0
    endloop
  endfacet
  facet normal 0 0 -1
    outer loop
      vertex 116.964 48.5734 0
      vertex 141.786 49.1183 0
      vertex 116.964 31.4266 0
    endloop
  endfacet
  facet normal -0 0 -1
    outer loop
      vertex 141.786 49.1183 0
      vertex 116.964 48.5734 0
      vertex 118 50 0
    endloop
  endfacet
  facet normal 0 0 -1
    outer loop
      vertex 107 34.5 0
      vertex 116.964 31.4266 0
      vertex 115.286 30.8817 0
    endloop
  endfacet
  facet normal 0 0 -1
    outer loop
      vertex 116.964 31.4266 0
      vertex 107 34.5 0
      vertex 116.964 48.5734 0
    endloop
  endfacet
  facet normal 0 0 -1
    outer loop
      vertex 120 315 0
      vertex 210 0 0
      vertex 143.464 51.4266 0
    endloop
  endfacet
  facet normal 0 0 -1
    outer loop
      vertex 210 0 0
      vertex 143.464 353.573 0
      vertex 144.5 355 0
    endloop
  endfacet
  facet normal 0 0 -1
    outer loop
      vertex 120 55 0
      vertex 143.464 51.4266 0
      vertex 141.786 50.8817 0
    endloop
  endfacet
  facet normal 0 0 -1
    outer loop
      vertex 210 0 0
      vertex 120 315 0
      vertex 143.464 353.573 0
    endloop
  endfacet
  facet normal 0 0 -1
    outer loop
      vertex 118 30 0
      vertex 145.464 6.42658 0
      vertex 143.786 5.88168 0
    endloop
  endfacet
  facet normal 0 0 -1
    outer loop
      vertex 145.464 6.42658 0
      vertex 143.464 48.5734 0
      vertex 144.5 50 0
    endloop
  endfacet
  facet normal 0 0 -1
    outer loop
      vertex 144.5 355 0
      vertex 210 415 0
      vertex 210 0 0
    endloop
  endfacet
  facet normal 0 0 -1
    outer loop
      vertex 144.5 50 0
      vertex 210 0 0
      vertex 146.5 5 0
    endloop
  endfacet
  facet normal 0 0 -1
    outer loop
      vertex 210 0 0
      vertex 145.464 3.57341 0
      vertex 146.5 5 0
    endloop
  endfacet
  facet normal 0 0 -1
    outer loop
      vertex 114.5 5 0
      vertex 143.786 5.88168 0
      vertex 143.786 4.11832 0
    endloop
  endfacet
  facet normal 0 0 -1
    outer loop
      vertex 145.464 6.42658 0
      vertex 118 30 0
      vertex 143.464 48.5734 0
    endloop
  endfacet
  facet normal 0 0 -1
    outer loop
      vertex 120 55 0
      vertex 141.786 50.8817 0
      vertex 141.786 49.1183 0
    endloop
  endfacet
  facet normal -0 0 -1
    outer loop
      vertex 143.464 353.573 0
      vertex 120 315 0
      vertex 141.786 354.118 0
    endloop
  endfacet
  facet normal 0 0 -1
    outer loop
      vertex 116.964 353.573 0
      vertex 141.786 354.118 0
      vertex 120 315 0
    endloop
  endfacet
  facet normal 0 0 -1
    outer loop
      vertex 143.464 51.4266 0
      vertex 120 55 0
      vertex 120 315 0
    endloop
  endfacet
  facet normal -0 0 -1
    outer loop
      vertex 143.464 48.5734 0
      vertex 118 30 0
      vertex 141.786 49.1183 0
    endloop
  endfacet
  facet normal 0 0 -1
    outer loop
      vertex 116.964 31.4266 0
      vertex 141.786 49.1183 0
      vertex 118 30 0
    endloop
  endfacet
  facet normal 0 0 -1
    outer loop
      vertex 143.786 5.88168 0
      vertex 116.964 28.5734 0
      vertex 118 30 0
    endloop
  endfacet
  facet normal -0 0 -1
    outer loop
      vertex 143.786 5.88168 0
      vertex 114.5 5 0
      vertex 116.964 28.5734 0
    endloop
  endfacet
  facet normal 0 0 -1
    outer loop
      vertex 107 34.5 0
      vertex 115.286 30.8817 0
      vertex 115.286 29.1183 0
    endloop
  endfacet
  facet normal -0 0 -1
    outer loop
      vertex 116.964 48.5734 0
      vertex 107 34.5 0
      vertex 115.286 49.1183 0
    endloop
  endfacet
  facet normal 0 0 -1
    outer loop
      vertex 107 12.5 0
      vertex 116.964 28.5734 0
      vertex 113.464 6.42658 0
    endloop
  endfacet
  facet normal 0 0 -1
    outer loop
      vertex 113.464 6.42658 0
      vertex 116.964 28.5734 0
      vertex 114.5 5 0
    endloop
  endfacet
  facet normal 0 0 -1
    outer loop
      vertex 113.464 3.57341 0
      vertex 143.786 4.11832 0
      vertex 145.464 3.57341 0
    endloop
  endfacet
  facet normal 0 0 -1
    outer loop
      vertex 113.464 3.57341 0
      vertex 145.464 3.57341 0
      vertex 210 0 0
    endloop
  endfacet
  facet normal -0 0 -1
    outer loop
      vertex 143.786 4.11832 0
      vertex 113.464 3.57341 0
      vertex 114.5 5 0
    endloop
  endfacet
  facet normal 0 0 -1
    outer loop
      vertex 111.786 4.11832 0
      vertex 107 12.5 0
      vertex 111.786 5.88168 0
    endloop
  endfacet
  facet normal 0 0 -1
    outer loop
      vertex 111.786 4.11832 0
      vertex 97 12.5 0
      vertex 107 12.5 0
    endloop
  endfacet
  facet normal 0 0 -1
    outer loop
      vertex 57.4635 6.42658 0
      vertex 97 12.5 0
      vertex 58.5 5 0
    endloop
  endfacet
  facet normal 0 0 -1
    outer loop
      vertex 57.4635 3.57341 0
      vertex 97 12.5 0
      vertex 111.786 4.11832 0
    endloop
  endfacet
  facet normal 0 0 -1
    outer loop
      vertex 57.4635 3.57341 0
      vertex 111.786 4.11832 0
      vertex 113.464 3.57341 0
    endloop
  endfacet
  facet normal 0 0 -1
    outer loop
      vertex 1.5 0 0
      vertex 113.464 3.57341 0
      vertex 210 0 0
    endloop
  endfacet
  facet normal 0 0 -1
    outer loop
      vertex 97 12.5 0
      vertex 57.4635 3.57341 0
      vertex 58.5 5 0
    endloop
  endfacet
  facet normal 0 0 -1
    outer loop
      vertex 26.5 5 0
      vertex 55.7865 5.88168 0
      vertex 55.7865 4.11832 0
    endloop
  endfacet
  facet normal 0 0 -1
    outer loop
      vertex 55.7865 5.88168 0
      vertex 53.9635 28.5734 0
      vertex 55 30 0
    endloop
  endfacet
  facet normal 0 0 -1
    outer loop
      vertex 55.7865 5.88168 0
      vertex 52.2865 29.1183 0
      vertex 53.9635 28.5734 0
    endloop
  endfacet
  facet normal 0 0 -1
    outer loop
      vertex 27.4635 48.5734 0
      vertex 52.2865 30.8817 0
      vertex 52.2865 29.1183 0
    endloop
  endfacet
  facet normal 0 0 -1
    outer loop
      vertex 52.2865 30.8817 0
      vertex 27.4635 48.5734 0
      vertex 52.2865 49.1183 0
    endloop
  endfacet
  facet normal 0 -0 -1
    outer loop
      vertex 50 55 0
      vertex 52.2865 49.1183 0
      vertex 28.5 50 0
    endloop
  endfacet
  facet normal 0 0 -1
    outer loop
      vertex 27.4635 51.4266 0
      vertex 50 55 0
      vertex 28.5 50 0
    endloop
  endfacet
  facet normal 0 0 -1
    outer loop
      vertex 27.4635 356.427 0
      vertex 52.2865 354.118 0
      vertex 28.5 355 0
    endloop
  endfacet
  facet normal 0 0 -1
    outer loop
      vertex 13.5 210 0
      vertex 50 55 0
      vertex 27.4635 51.4266 0
    endloop
  endfacet
  facet normal 0 0 -1
    outer loop
      vertex 52.2865 49.1183 0
      vertex 50 55 0
      vertex 52.2865 50.8817 0
    endloop
  endfacet
  facet normal -0 0 -1
    outer loop
      vertex 55.7865 5.88168 0
      vertex 26.5 5 0
      vertex 52.2865 29.1183 0
    endloop
  endfacet
  facet normal -0 0 -1
    outer loop
      vertex 52.2865 49.1183 0
      vertex 27.4635 48.5734 0
      vertex 28.5 50 0
    endloop
  endfacet
  facet normal 0 0 -1
    outer loop
      vertex 25.4635 6.42658 0
      vertex 52.2865 29.1183 0
      vertex 26.5 5 0
    endloop
  endfacet
  facet normal 0 0 -1
    outer loop
      vertex 25.4635 3.57341 0
      vertex 55.7865 4.11832 0
      vertex 57.4635 3.57341 0
    endloop
  endfacet
  facet normal -0 0 -1
    outer loop
      vertex 55.7865 4.11832 0
      vertex 25.4635 3.57341 0
      vertex 26.5 5 0
    endloop
  endfacet
  facet normal -0 0 -1
    outer loop
      vertex 113.464 3.57341 0
      vertex 1.5 0 0
      vertex 57.4635 3.57341 0
    endloop
  endfacet
  facet normal 0 0 -1
    outer loop
      vertex 1.5 0 0
      vertex 23.7865 5.88168 0
      vertex 23.7865 4.11832 0
    endloop
  endfacet
  facet normal 0 0 -1
    outer loop
      vertex 12.4635 231.427 0
      vertex 50 315 0
      vertex 13.5 230 0
    endloop
  endfacet
  facet normal 0 0 -1
    outer loop
      vertex 27.4635 51.4266 0
      vertex 12.4635 208.573 0
      vertex 13.5 210 0
    endloop
  endfacet
  facet normal 0 0 -1
    outer loop
      vertex 0 1.27598 0
      vertex 25.7865 49.1183 0
      vertex 0.463525 1.42658 0
    endloop
  endfacet
  facet normal 0 0 0
    outer loop
      vertex 10.7865 209.118 0
      vertex 10.7865 229.118 0
      vertex 10.7865 210.882 0
    endloop
  endfacet
  facet normal 0 0 0
    outer loop
      vertex 10.7865 209.118 0
      vertex 10.7865 230.882 0
      vertex 10.7865 229.118 0
    endloop
  endfacet
  facet normal -0 0 -1
    outer loop
      vertex 25.7865 49.1183 0
      vertex 0 1.27598 0
      vertex 25.7865 50.8817 0
    endloop
  endfacet
  facet normal 0 0 -1
    outer loop
      vertex 25.7865 50.8817 0
      vertex 10.7865 209.118 0
      vertex 12.4635 208.573 0
    endloop
  endfacet
  facet normal -0 0 -1
    outer loop
      vertex 25.4635 3.57341 0
      vertex 1.5 0 0
      vertex 23.7865 4.11832 0
    endloop
  endfacet
  facet normal -0 0 -1
    outer loop
      vertex 57.4635 3.57341 0
      vertex 1.5 0 0
      vertex 25.4635 3.57341 0
    endloop
  endfacet
  facet normal 0 0 -1
    outer loop
      vertex 144.5 50 0
      vertex 146.5 5 0
      vertex 145.464 6.42658 0
    endloop
  endfacet
  facet normal 0 0 -1
    outer loop
      vertex 143.464 51.4266 0
      vertex 210 0 0
      vertex 144.5 50 0
    endloop
  endfacet
  facet normal 0 0 -1
    outer loop
      vertex 139 386 0
      vertex 210 415 0
      vertex 144.5 355 0
    endloop
  endfacet
  facet normal 0 0 -1
    outer loop
      vertex 139 386 0
      vertex 144.5 355 0
      vertex 143.464 356.427 0
    endloop
  endfacet
  facet normal 0 0 -1
    outer loop
      vertex 139 386 0
      vertex 143.464 356.427 0
      vertex 141.786 355.882 0
    endloop
  endfacet
  facet normal -0 0 -1
    outer loop
      vertex 210 415 0
      vertex 139 386 0
      vertex 189 436 0
    endloop
  endfacet
  facet normal 0 0 -1
    outer loop
      vertex 139 416 0
      vertex 189 436 0
      vertex 139 386 0
    endloop
  endfacet
  facet normal 0 0 -1
    outer loop
      vertex 21 436 0
      vertex 139 416 0
      vertex 31 416 0
    endloop
  endfacet
  facet normal 0 0 -1
    outer loop
      vertex 52.2865 354.118 0
      vertex 27.4635 356.427 0
      vertex 31 386 0
    endloop
  endfacet
  facet normal 0 0 -1
    outer loop
      vertex 25.7865 355.882 0
      vertex 31 386 0
      vertex 27.4635 356.427 0
    endloop
  endfacet
  facet normal 0 0 -1
    outer loop
      vertex 21 436 0
      vertex 31 386 0
      vertex 25.7865 355.882 0
    endloop
  endfacet
  facet normal 0 0 -1
    outer loop
      vertex 50 315 0
      vertex 25.7865 354.118 0
      vertex 27.4635 353.573 0
    endloop
  endfacet
  facet normal 0 0 -1
    outer loop
      vertex 139 416 0
      vertex 21 436 0
      vertex 189 436 0
    endloop
  endfacet
  facet normal 0 0 -1
    outer loop
      vertex 31 386 0
      vertex 21 436 0
      vertex 31 416 0
    endloop
  endfacet
  facet normal 0 0 -1
    outer loop
      vertex 25.7865 354.118 0
      vertex 21 436 0
      vertex 25.7865 355.882 0
    endloop
  endfacet
  facet normal 0 0 -1
    outer loop
      vertex 141.786 354.118 0
      vertex 118 355 0
      vertex 141.786 355.882 0
    endloop
  endfacet
  facet normal 0 0 -1
    outer loop
      vertex 116.964 356.427 0
      vertex 141.786 355.882 0
      vertex 118 355 0
    endloop
  endfacet
  facet normal 0 0 -1
    outer loop
      vertex 141.786 355.882 0
      vertex 116.964 356.427 0
      vertex 139 386 0
    endloop
  endfacet
  facet normal 0 0 -1
    outer loop
      vertex 115.286 355.882 0
      vertex 139 386 0
      vertex 116.964 356.427 0
    endloop
  endfacet
  facet normal 0 0 -1
    outer loop
      vertex 53.9635 356.427 0
      vertex 115.286 355.882 0
      vertex 55 355 0
    endloop
  endfacet
  facet normal 0 0 -1
    outer loop
      vertex 115.286 355.882 0
      vertex 53.9635 356.427 0
      vertex 139 386 0
    endloop
  endfacet
  facet normal 0 0 -1
    outer loop
      vertex 31 386 0
      vertex 53.9635 356.427 0
      vertex 52.2865 355.882 0
    endloop
  endfacet
  facet normal 0 0 -1
    outer loop
      vertex 53.9635 356.427 0
      vertex 31 386 0
      vertex 139 386 0
    endloop
  endfacet
  facet normal 0 0 -1
    outer loop
      vertex 52.2865 354.118 0
      vertex 31 386 0
      vertex 52.2865 355.882 0
    endloop
  endfacet
  facet normal 0 0 -1
    outer loop
      vertex 141.786 49.1183 0
      vertex 118 50 0
      vertex 120 55 0
    endloop
  endfacet
  facet normal 0 0 -1
    outer loop
      vertex 116.964 51.4266 0
      vertex 120 55 0
      vertex 118 50 0
    endloop
  endfacet
  facet normal 0 0 -1
    outer loop
      vertex 115.286 50.8817 0
      vertex 120 55 0
      vertex 116.964 51.4266 0
    endloop
  endfacet
  facet normal -0 0 -1
    outer loop
      vertex 116.964 28.5734 0
      vertex 107 12.5 0
      vertex 115.286 29.1183 0
    endloop
  endfacet
  facet normal 0 0 -1
    outer loop
      vertex 107 12.5 0
      vertex 113.464 6.42658 0
      vertex 111.786 5.88168 0
    endloop
  endfacet
  facet normal -0 0 -1
    outer loop
      vertex 115.286 29.1183 0
      vertex 107 12.5 0
      vertex 107 34.5 0
    endloop
  endfacet
  facet normal 0 0 -1
    outer loop
      vertex 97 34.5 0
      vertex 115.286 49.1183 0
      vertex 107 34.5 0
    endloop
  endfacet
  facet normal -0 0 -1
    outer loop
      vertex 115.286 49.1183 0
      vertex 97 34.5 0
      vertex 115.286 50.8817 0
    endloop
  endfacet
  facet normal 0 0 -1
    outer loop
      vertex 55 30 0
      vertex 97 12.5 0
      vertex 57.4635 6.42658 0
    endloop
  endfacet
  facet normal 0 0 -1
    outer loop
      vertex 55 50 0
      vertex 97 34.5 0
      vertex 55 30 0
    endloop
  endfacet
  facet normal 0 0 -1
    outer loop
      vertex 97 12.5 0
      vertex 55 30 0
      vertex 97 34.5 0
    endloop
  endfacet
  facet normal 0 0 -1
    outer loop
      vertex 55 30 0
      vertex 57.4635 6.42658 0
      vertex 55.7865 5.88168 0
    endloop
  endfacet
  facet normal 0 0 -1
    outer loop
      vertex 97 34.5 0
      vertex 55 50 0
      vertex 115.286 50.8817 0
    endloop
  endfacet
  facet normal 0 0 -1
    outer loop
      vertex 53.9635 51.4266 0
      vertex 115.286 50.8817 0
      vertex 55 50 0
    endloop
  endfacet
  facet normal 0 0 -1
    outer loop
      vertex 115.286 50.8817 0
      vertex 53.9635 51.4266 0
      vertex 120 55 0
    endloop
  endfacet
  facet normal 0 0 -1
    outer loop
      vertex 53.9635 51.4266 0
      vertex 50 55 0
      vertex 120 55 0
    endloop
  endfacet
  facet normal 0 0 -1
    outer loop
      vertex 50 55 0
      vertex 53.9635 51.4266 0
      vertex 52.2865 50.8817 0
    endloop
  endfacet
  facet normal 0 0 -1
    outer loop
      vertex 53.9635 31.4266 0
      vertex 55 50 0
      vertex 55 30 0
    endloop
  endfacet
  facet normal 0 0 -1
    outer loop
      vertex 53.9635 31.4266 0
      vertex 53.9635 48.5734 0
      vertex 55 50 0
    endloop
  endfacet
  facet normal 0 0 -1
    outer loop
      vertex 52.2865 30.8817 0
      vertex 53.9635 48.5734 0
      vertex 53.9635 31.4266 0
    endloop
  endfacet
  facet normal -0 0 -1
    outer loop
      vertex 53.9635 48.5734 0
      vertex 52.2865 30.8817 0
      vertex 52.2865 49.1183 0
    endloop
  endfacet
  facet normal 1 -0 0
    outer loop
      vertex 50 55 10
      vertex 50 315 0
      vertex 50 315 10
    endloop
  endfacet
  facet normal 1 0 0
    outer loop
      vertex 50 315 0
      vertex 50 55 10
      vertex 50 55 0
    endloop
  endfacet
  facet normal -1 0 0
    outer loop
      vertex 120 55 0
      vertex 120 315 10
      vertex 120 315 0
    endloop
  endfacet
  facet normal -1 -0 0
    outer loop
      vertex 120 315 10
      vertex 120 55 0
      vertex 120 55 10
    endloop
  endfacet
  facet normal 0 1 -0
    outer loop
      vertex 120 55 0
      vertex 50 55 10
      vertex 120 55 10
    endloop
  endfacet
  facet normal 0 1 0
    outer loop
      vertex 50 55 10
      vertex 120 55 0
      vertex 50 55 0
    endloop
  endfacet
  facet normal 0 -1 0
    outer loop
      vertex 50 315 0
      vertex 120 315 10
      vertex 50 315 10
    endloop
  endfacet
  facet normal 0 -1 -0
    outer loop
      vertex 120 315 10
      vertex 50 315 0
      vertex 120 315 0
    endloop
  endfacet
  facet normal 1 -0 0
    outer loop
      vertex 31 386 10
      vertex 31 416 0
      vertex 31 416 10
    endloop
  endfacet
  facet normal 1 0 0
    outer loop
      vertex 31 416 0
      vertex 31 386 10
      vertex 31 386 0
    endloop
  endfacet
  facet normal -1 0 0
    outer loop
      vertex 139 386 0
      vertex 139 416 10
      vertex 139 416 0
    endloop
  endfacet
  facet normal -1 -0 0
    outer loop
      vertex 139 416 10
      vertex 139 386 0
      vertex 139 386 10
    endloop
  endfacet
  facet normal 0 -1 0
    outer loop
      vertex 31 416 0
      vertex 139 416 10
      vertex 31 416 10
    endloop
  endfacet
  facet normal 0 -1 -0
    outer loop
      vertex 139 416 10
      vertex 31 416 0
      vertex 139 416 0
    endloop
  endfacet
  facet normal 0 1 -0
    outer loop
      vertex 139 386 0
      vertex 31 386 10
      vertex 139 386 10
    endloop
  endfacet
  facet normal 0 1 0
    outer loop
      vertex 31 386 10
      vertex 139 386 0
      vertex 31 386 0
    endloop
  endfacet
  facet normal 1 -0 0
    outer loop
      vertex 97 12.5 10
      vertex 97 34.5 0
      vertex 97 34.5 10
    endloop
  endfacet
  facet normal 1 0 0
    outer loop
      vertex 97 34.5 0
      vertex 97 12.5 10
      vertex 97 12.5 0
    endloop
  endfacet
  facet normal -1 0 0
    outer loop
      vertex 107 12.5 0
      vertex 107 34.5 10
      vertex 107 34.5 0
    endloop
  endfacet
  facet normal -1 -0 0
    outer loop
      vertex 107 34.5 10
      vertex 107 12.5 0
      vertex 107 12.5 10
    endloop
  endfacet
  facet normal 0 -1 0
    outer loop
      vertex 97 34.5 0
      vertex 107 34.5 10
      vertex 97 34.5 10
    endloop
  endfacet
  facet normal 0 -1 -0
    outer loop
      vertex 107 34.5 10
      vertex 97 34.5 0
      vertex 107 34.5 0
    endloop
  endfacet
  facet normal 0 1 -0
    outer loop
      vertex 107 12.5 0
      vertex 97 12.5 10
      vertex 107 12.5 10
    endloop
  endfacet
  facet normal 0 1 0
    outer loop
      vertex 97 12.5 10
      vertex 107 12.5 0
      vertex 97 12.5 0
    endloop
  endfacet
  facet normal -0.707107 0.707107 0
    outer loop
      vertex 0 415 0
      vertex 21 436 10
      vertex 21 436 0
    endloop
  endfacet
  facet normal -0.707107 0.707107 0
    outer loop
      vertex 21 436 10
      vertex 0 415 0
      vertex 0 415 10
    endloop
  endfacet
  facet normal 0.707107 0.707107 0
    outer loop
      vertex 210 415 10
      vertex 189 436 0
      vertex 189 436 10
    endloop
  endfacet
  facet normal 0.707107 0.707107 0
    outer loop
      vertex 189 436 0
      vertex 210 415 10
      vertex 210 415 0
    endloop
  endfacet
  facet normal -1 0 0
    outer loop
      vertex 0 1.27598 0
      vertex 0 415 10
      vertex 0 415 0
    endloop
  endfacet
  facet normal -1 -0 0
    outer loop
      vertex 0 415 10
      vertex 0 1.27598 0
      vertex 0 1.27598 10
    endloop
  endfacet
  facet normal -0 0 1
    outer loop
      vertex 12.4635 228.573 10
      vertex 13.5 210 10
      vertex 13.5 230 10
    endloop
  endfacet
  facet normal 0 0 1
    outer loop
      vertex 12.4635 228.573 10
      vertex 12.4635 211.427 10
      vertex 13.5 210 10
    endloop
  endfacet
  facet normal 0 0 1
    outer loop
      vertex 10.7865 229.118 10
      vertex 12.4635 211.427 10
      vertex 12.4635 228.573 10
    endloop
  endfacet
  facet normal 0 0 1
    outer loop
      vertex 12.4635 211.427 10
      vertex 10.7865 229.118 10
      vertex 10.7865 210.882 10
    endloop
  endfacet
  facet normal 0 0 1
    outer loop
      vertex 50 315 10
      vertex 12.4635 231.427 10
      vertex 13.5 230 10
    endloop
  endfacet
  facet normal 0 -0 1
    outer loop
      vertex 10.7865 230.882 10
      vertex 25.7865 355.882 10
      vertex 0 415 10
    endloop
  endfacet
  facet normal 0 0 0
    outer loop
      vertex 10.7865 230.882 10
      vertex 10.7865 210.882 10
      vertex 10.7865 229.118 10
    endloop
  endfacet
  facet normal 0 0 0
    outer loop
      vertex 10.7865 230.882 10
      vertex 10.7865 209.118 10
      vertex 10.7865 210.882 10
    endloop
  endfacet
  facet normal 0 0 1
    outer loop
      vertex 0 1.27598 10
      vertex 10.7865 209.118 10
      vertex 10.7865 230.882 10
    endloop
  endfacet
  facet normal 0 0 1
    outer loop
      vertex 10.7865 209.118 10
      vertex 0.463525 1.42658 10
      vertex 1.5 0 10
    endloop
  endfacet
  facet normal 0 0 1
    outer loop
      vertex 25.7865 355.882 10
      vertex 10.7865 230.882 10
      vertex 12.4635 231.427 10
    endloop
  endfacet
  facet normal 0 0 1
    outer loop
      vertex 0 1.27598 10
      vertex 10.7865 230.882 10
      vertex 0 415 10
    endloop
  endfacet
  facet normal 0 0 1
    outer loop
      vertex 10.7865 209.118 10
      vertex 0 1.27598 10
      vertex 0.463525 1.42658 10
    endloop
  endfacet
  facet normal 0 0 1
    outer loop
      vertex 25.4635 6.42658 10
      vertex 27.4635 48.5734 10
      vertex 25.7865 49.1183 10
    endloop
  endfacet
  facet normal 0 0 1
    outer loop
      vertex 27.4635 48.5734 10
      vertex 25.4635 6.42658 10
      vertex 26.5 5 10
    endloop
  endfacet
  facet normal 0 0 1
    outer loop
      vertex 25.7865 354.118 10
      vertex 50 315 10
      vertex 27.4635 353.573 10
    endloop
  endfacet
  facet normal 0 0 1
    outer loop
      vertex 50 315 10
      vertex 13.5 210 10
      vertex 28.5 50 10
    endloop
  endfacet
  facet normal 0 0 1
    outer loop
      vertex 12.4635 231.427 10
      vertex 50 315 10
      vertex 25.7865 354.118 10
    endloop
  endfacet
  facet normal 0 0 1
    outer loop
      vertex 28.5 50 10
      vertex 13.5 210 10
      vertex 27.4635 51.4266 10
    endloop
  endfacet
  facet normal -0 0 1
    outer loop
      vertex 53.9635 48.5734 10
      vertex 55 30 10
      vertex 55 50 10
    endloop
  endfacet
  facet normal 0 0 1
    outer loop
      vertex 53.9635 48.5734 10
      vertex 53.9635 31.4266 10
      vertex 55 30 10
    endloop
  endfacet
  facet normal 0 0 1
    outer loop
      vertex 52.2865 49.1183 10
      vertex 53.9635 31.4266 10
      vertex 53.9635 48.5734 10
    endloop
  endfacet
  facet normal 0 0 1
    outer loop
      vertex 53.9635 31.4266 10
      vertex 52.2865 49.1183 10
      vertex 52.2865 30.8817 10
    endloop
  endfacet
  facet normal 0 0 1
    outer loop
      vertex 116.964 31.4266 10
      vertex 141.786 49.1183 10
      vertex 116.964 48.5734 10
    endloop
  endfacet
  facet normal 0 0 1
    outer loop
      vertex 141.786 49.1183 10
      vertex 116.964 31.4266 10
      vertex 118 30 10
    endloop
  endfacet
  facet normal 0 0 1
    outer loop
      vertex 107 34.5 10
      vertex 116.964 48.5734 10
      vertex 115.286 49.1183 10
    endloop
  endfacet
  facet normal 0 0 1
    outer loop
      vertex 116.964 48.5734 10
      vertex 107 34.5 10
      vertex 116.964 31.4266 10
    endloop
  endfacet
  facet normal 0 0 1
    outer loop
      vertex 120 55 10
      vertex 116.964 51.4266 10
      vertex 118 50 10
    endloop
  endfacet
  facet normal 0 0 1
    outer loop
      vertex 120 55 10
      vertex 115.286 50.8817 10
      vertex 116.964 51.4266 10
    endloop
  endfacet
  facet normal 0 0 1
    outer loop
      vertex 97 34.5 10
      vertex 115.286 49.1183 10
      vertex 115.286 50.8817 10
    endloop
  endfacet
  facet normal 0 0 1
    outer loop
      vertex 116.964 31.4266 10
      vertex 107 34.5 10
      vertex 115.286 30.8817 10
    endloop
  endfacet
  facet normal 0 0 1
    outer loop
      vertex 115.286 30.8817 10
      vertex 107 34.5 10
      vertex 115.286 29.1183 10
    endloop
  endfacet
  facet normal 0 0 1
    outer loop
      vertex 115.286 29.1183 10
      vertex 113.464 6.42658 10
      vertex 114.5 5 10
    endloop
  endfacet
  facet normal 0 0 1
    outer loop
      vertex 107 12.5 10
      vertex 115.286 29.1183 10
      vertex 107 34.5 10
    endloop
  endfacet
  facet normal 0 0 1
    outer loop
      vertex 113.464 6.42658 10
      vertex 107 12.5 10
      vertex 111.786 5.88168 10
    endloop
  endfacet
  facet normal 0 0 1
    outer loop
      vertex 115.286 29.1183 10
      vertex 107 12.5 10
      vertex 113.464 6.42658 10
    endloop
  endfacet
  facet normal 0 0 1
    outer loop
      vertex 115.286 49.1183 10
      vertex 97 34.5 10
      vertex 107 34.5 10
    endloop
  endfacet
  facet normal -0 0 1
    outer loop
      vertex 55 30 10
      vertex 97 12.5 10
      vertex 97 34.5 10
    endloop
  endfacet
  facet normal -0 0 1
    outer loop
      vertex 55 50 10
      vertex 97 34.5 10
      vertex 115.286 50.8817 10
    endloop
  endfacet
  facet normal -0 0 1
    outer loop
      vertex 53.9635 51.4266 10
      vertex 115.286 50.8817 10
      vertex 120 55 10
    endloop
  endfacet
  facet normal 0 0 1
    outer loop
      vertex 97 12.5 10
      vertex 55 30 10
      vertex 57.4635 6.42658 10
    endloop
  endfacet
  facet normal 0 0 1
    outer loop
      vertex 97 12.5 10
      vertex 57.4635 6.42658 10
      vertex 58.5 5 10
    endloop
  endfacet
  facet normal -0 0 1
    outer loop
      vertex 53.9635 28.5734 10
      vertex 57.4635 6.42658 10
      vertex 55 30 10
    endloop
  endfacet
  facet normal 0 0 1
    outer loop
      vertex 97 34.5 10
      vertex 55 50 10
      vertex 55 30 10
    endloop
  endfacet
  facet normal 0 0 1
    outer loop
      vertex 115.286 50.8817 10
      vertex 53.9635 51.4266 10
      vertex 55 50 10
    endloop
  endfacet
  facet normal 0 0 1
    outer loop
      vertex 50 55 10
      vertex 52.2865 49.1183 10
      vertex 52.2865 50.8817 10
    endloop
  endfacet
  facet normal 0 0 1
    outer loop
      vertex 27.4635 48.5734 10
      vertex 52.2865 49.1183 10
      vertex 28.5 50 10
    endloop
  endfacet
  facet normal 0 0 1
    outer loop
      vertex 52.2865 49.1183 10
      vertex 50 55 10
      vertex 28.5 50 10
    endloop
  endfacet
  facet normal 0 0 1
    outer loop
      vertex 53.9635 51.4266 10
      vertex 50 55 10
      vertex 52.2865 50.8817 10
    endloop
  endfacet
  facet normal -0 0 1
    outer loop
      vertex 50 55 10
      vertex 53.9635 51.4266 10
      vertex 120 55 10
    endloop
  endfacet
  facet normal 0 0 1
    outer loop
      vertex 116.964 353.573 10
      vertex 141.786 354.118 10
      vertex 118 355 10
    endloop
  endfacet
  facet normal 0 0 1
    outer loop
      vertex 141.786 355.882 10
      vertex 116.964 356.427 10
      vertex 118 355 10
    endloop
  endfacet
  facet normal 0 0 1
    outer loop
      vertex 139 386 10
      vertex 115.286 355.882 10
      vertex 116.964 356.427 10
    endloop
  endfacet
  facet normal 0 0 1
    outer loop
      vertex 115.286 355.882 10
      vertex 55 355 10
      vertex 115.286 354.118 10
    endloop
  endfacet
  facet normal -0 0 1
    outer loop
      vertex 53.9635 356.427 10
      vertex 115.286 355.882 10
      vertex 139 386 10
    endloop
  endfacet
  facet normal 0 0 1
    outer loop
      vertex 115.286 355.882 10
      vertex 53.9635 356.427 10
      vertex 55 355 10
    endloop
  endfacet
  facet normal -0 0 1
    outer loop
      vertex 31 386 10
      vertex 53.9635 356.427 10
      vertex 139 386 10
    endloop
  endfacet
  facet normal -0 0 1
    outer loop
      vertex 28.5 355 10
      vertex 52.2865 354.118 10
      vertex 52.2865 355.882 10
    endloop
  endfacet
  facet normal 0 0 1
    outer loop
      vertex 27.4635 353.573 10
      vertex 52.2865 354.118 10
      vertex 28.5 355 10
    endloop
  endfacet
  facet normal 0 0 1
    outer loop
      vertex 28.5 355 10
      vertex 52.2865 355.882 10
      vertex 31 386 10
    endloop
  endfacet
  facet normal 0 0 1
    outer loop
      vertex 53.9635 356.427 10
      vertex 31 386 10
      vertex 52.2865 355.882 10
    endloop
  endfacet
  facet normal 0 0 1
    outer loop
      vertex 141.786 354.118 10
      vertex 116.964 353.573 10
      vertex 120 315 10
    endloop
  endfacet
  facet normal 0 0 1
    outer loop
      vertex 115.286 354.118 10
      vertex 120 315 10
      vertex 116.964 353.573 10
    endloop
  endfacet
  facet normal 0 0 1
    outer loop
      vertex 53.9635 353.573 10
      vertex 115.286 354.118 10
      vertex 55 355 10
    endloop
  endfacet
  facet normal 0 0 1
    outer loop
      vertex 115.286 354.118 10
      vertex 53.9635 353.573 10
      vertex 120 315 10
    endloop
  endfacet
  facet normal 0 0 1
    outer loop
      vertex 50 315 10
      vertex 53.9635 353.573 10
      vertex 52.2865 354.118 10
    endloop
  endfacet
  facet normal 0 0 1
    outer loop
      vertex 53.9635 353.573 10
      vertex 50 315 10
      vertex 120 315 10
    endloop
  endfacet
  facet normal 0 0 1
    outer loop
      vertex 143.464 51.4266 10
      vertex 210 415 10
      vertex 143.464 353.573 10
    endloop
  endfacet
  facet normal 0 0 1
    outer loop
      vertex 210 415 10
      vertex 143.464 51.4266 10
      vertex 144.5 50 10
    endloop
  endfacet
  facet normal 0 0 1
    outer loop
      vertex 120 315 10
      vertex 143.464 353.573 10
      vertex 141.786 354.118 10
    endloop
  endfacet
  facet normal 0 0 1
    outer loop
      vertex 143.464 353.573 10
      vertex 120 315 10
      vertex 143.464 51.4266 10
    endloop
  endfacet
  facet normal 0 0 1
    outer loop
      vertex 210 0 10
      vertex 145.464 6.42658 10
      vertex 146.5 5 10
    endloop
  endfacet
  facet normal 0 0 1
    outer loop
      vertex 143.464 353.573 10
      vertex 210 415 10
      vertex 144.5 355 10
    endloop
  endfacet
  facet normal 0 0 1
    outer loop
      vertex 210 415 10
      vertex 139 386 10
      vertex 144.5 355 10
    endloop
  endfacet
  facet normal 0 0 1
    outer loop
      vertex 144.5 355 10
      vertex 139 386 10
      vertex 143.464 356.427 10
    endloop
  endfacet
  facet normal -0 0 1
    outer loop
      vertex 118 355 10
      vertex 141.786 354.118 10
      vertex 141.786 355.882 10
    endloop
  endfacet
  facet normal -0 0 1
    outer loop
      vertex 120 55 10
      vertex 143.464 51.4266 10
      vertex 120 315 10
    endloop
  endfacet
  facet normal 0 0 1
    outer loop
      vertex 143.464 356.427 10
      vertex 139 386 10
      vertex 141.786 355.882 10
    endloop
  endfacet
  facet normal 0 0 1
    outer loop
      vertex 139 386 10
      vertex 189 436 10
      vertex 139 416 10
    endloop
  endfacet
  facet normal -0 0 1
    outer loop
      vertex 21 436 10
      vertex 139 416 10
      vertex 189 436 10
    endloop
  endfacet
  facet normal 0 0 1
    outer loop
      vertex 0 415 10
      vertex 31 416 10
      vertex 21 436 10
    endloop
  endfacet
  facet normal 0 0 1
    outer loop
      vertex 31 386 10
      vertex 27.4635 356.427 10
      vertex 28.5 355 10
    endloop
  endfacet
  facet normal 0 0 1
    outer loop
      vertex 31 386 10
      vertex 25.7865 355.882 10
      vertex 27.4635 356.427 10
    endloop
  endfacet
  facet normal 0 0 1
    outer loop
      vertex 12.4635 231.427 10
      vertex 25.7865 354.118 10
      vertex 25.7865 355.882 10
    endloop
  endfacet
  facet normal -0 0 1
    outer loop
      vertex 12.4635 208.573 10
      vertex 27.4635 51.4266 10
      vertex 13.5 210 10
    endloop
  endfacet
  facet normal 0 0 1
    outer loop
      vertex 27.4635 51.4266 10
      vertex 12.4635 208.573 10
      vertex 25.7865 50.8817 10
    endloop
  endfacet
  facet normal 0 0 1
    outer loop
      vertex 10.7865 209.118 10
      vertex 25.7865 50.8817 10
      vertex 12.4635 208.573 10
    endloop
  endfacet
  facet normal 0 0 1
    outer loop
      vertex 50 315 10
      vertex 13.5 230 10
      vertex 13.5 210 10
    endloop
  endfacet
  facet normal 0 0 1
    outer loop
      vertex 31 386 10
      vertex 0 415 10
      vertex 25.7865 355.882 10
    endloop
  endfacet
  facet normal 0 0 1
    outer loop
      vertex 31 416 10
      vertex 0 415 10
      vertex 31 386 10
    endloop
  endfacet
  facet normal 0 0 1
    outer loop
      vertex 139 416 10
      vertex 21 436 10
      vertex 31 416 10
    endloop
  endfacet
  facet normal 0 0 1
    outer loop
      vertex 139 386 10
      vertex 210 415 10
      vertex 189 436 10
    endloop
  endfacet
  facet normal -0 0 1
    outer loop
      vertex 145.464 6.42658 10
      vertex 210 0 10
      vertex 210 415 10
    endloop
  endfacet
  facet normal -0 0 1
    outer loop
      vertex 145.464 3.57341 10
      vertex 210 0 10
      vertex 146.5 5 10
    endloop
  endfacet
  facet normal 0 0 1
    outer loop
      vertex 145.464 6.42658 10
      vertex 118 30 10
      vertex 143.786 5.88168 10
    endloop
  endfacet
  facet normal -0 0 1
    outer loop
      vertex 116.964 356.427 10
      vertex 141.786 355.882 10
      vertex 139 386 10
    endloop
  endfacet
  facet normal 0 0 1
    outer loop
      vertex 143.464 51.4266 10
      vertex 120 55 10
      vertex 141.786 50.8817 10
    endloop
  endfacet
  facet normal 0 0 1
    outer loop
      vertex 141.786 50.8817 10
      vertex 120 55 10
      vertex 141.786 49.1183 10
    endloop
  endfacet
  facet normal -0 0 1
    outer loop
      vertex 118 50 10
      vertex 141.786 49.1183 10
      vertex 120 55 10
    endloop
  endfacet
  facet normal 0 0 1
    outer loop
      vertex 116.964 48.5734 10
      vertex 141.786 49.1183 10
      vertex 118 50 10
    endloop
  endfacet
  facet normal -0 0 1
    outer loop
      vertex 116.964 28.5734 10
      vertex 143.786 5.88168 10
      vertex 118 30 10
    endloop
  endfacet
  facet normal 0 0 1
    outer loop
      vertex 114.5 5 10
      vertex 143.786 5.88168 10
      vertex 116.964 28.5734 10
    endloop
  endfacet
  facet normal 0 0 1
    outer loop
      vertex 114.5 5 10
      vertex 116.964 28.5734 10
      vertex 115.286 29.1183 10
    endloop
  endfacet
  facet normal 0 0 1
    outer loop
      vertex 143.786 5.88168 10
      vertex 114.5 5 10
      vertex 143.786 4.11832 10
    endloop
  endfacet
  facet normal 0 0 1
    outer loop
      vertex 113.464 3.57341 10
      vertex 143.786 4.11832 10
      vertex 114.5 5 10
    endloop
  endfacet
  facet normal 0 0 1
    outer loop
      vertex 143.786 4.11832 10
      vertex 113.464 3.57341 10
      vertex 145.464 3.57341 10
    endloop
  endfacet
  facet normal 0 0 1
    outer loop
      vertex 145.464 3.57341 10
      vertex 113.464 3.57341 10
      vertex 210 0 10
    endloop
  endfacet
  facet normal 0 0 1
    outer loop
      vertex 111.786 5.88168 10
      vertex 107 12.5 10
      vertex 111.786 4.11832 10
    endloop
  endfacet
  facet normal -0 0 1
    outer loop
      vertex 97 12.5 10
      vertex 111.786 4.11832 10
      vertex 107 12.5 10
    endloop
  endfacet
  facet normal 0 0 1
    outer loop
      vertex 57.4635 3.57341 10
      vertex 97 12.5 10
      vertex 58.5 5 10
    endloop
  endfacet
  facet normal 0 0 1
    outer loop
      vertex 97 12.5 10
      vertex 57.4635 3.57341 10
      vertex 111.786 4.11832 10
    endloop
  endfacet
  facet normal 0 0 1
    outer loop
      vertex 111.786 4.11832 10
      vertex 57.4635 3.57341 10
      vertex 113.464 3.57341 10
    endloop
  endfacet
  facet normal 0 0 1
    outer loop
      vertex 1.5 0 10
      vertex 113.464 3.57341 10
      vertex 57.4635 3.57341 10
    endloop
  endfacet
  facet normal 0 0 1
    outer loop
      vertex 57.4635 6.42658 10
      vertex 53.9635 28.5734 10
      vertex 55.7865 5.88168 10
    endloop
  endfacet
  facet normal 0 0 1
    outer loop
      vertex 52.2865 29.1183 10
      vertex 55.7865 5.88168 10
      vertex 53.9635 28.5734 10
    endloop
  endfacet
  facet normal 0 0 1
    outer loop
      vertex 26.5 5 10
      vertex 55.7865 5.88168 10
      vertex 52.2865 29.1183 10
    endloop
  endfacet
  facet normal 0 0 1
    outer loop
      vertex 52.2865 354.118 10
      vertex 27.4635 353.573 10
      vertex 50 315 10
    endloop
  endfacet
  facet normal 0 0 1
    outer loop
      vertex 50 315 10
      vertex 28.5 50 10
      vertex 50 55 10
    endloop
  endfacet
  facet normal 0 0 1
    outer loop
      vertex 52.2865 49.1183 10
      vertex 27.4635 48.5734 10
      vertex 52.2865 30.8817 10
    endloop
  endfacet
  facet normal 0 0 1
    outer loop
      vertex 52.2865 30.8817 10
      vertex 27.4635 48.5734 10
      vertex 52.2865 29.1183 10
    endloop
  endfacet
  facet normal 0 0 1
    outer loop
      vertex 26.5 5 10
      vertex 52.2865 29.1183 10
      vertex 27.4635 48.5734 10
    endloop
  endfacet
  facet normal 0 0 1
    outer loop
      vertex 55.7865 5.88168 10
      vertex 26.5 5 10
      vertex 55.7865 4.11832 10
    endloop
  endfacet
  facet normal 0 0 1
    outer loop
      vertex 25.4635 3.57341 10
      vertex 55.7865 4.11832 10
      vertex 26.5 5 10
    endloop
  endfacet
  facet normal 0 0 1
    outer loop
      vertex 55.7865 4.11832 10
      vertex 25.4635 3.57341 10
      vertex 57.4635 3.57341 10
    endloop
  endfacet
  facet normal 0 0 1
    outer loop
      vertex 1.5 0 10
      vertex 57.4635 3.57341 10
      vertex 25.4635 3.57341 10
    endloop
  endfacet
  facet normal 0 0 1
    outer loop
      vertex 1.5 0 10
      vertex 25.7865 50.8817 10
      vertex 10.7865 209.118 10
    endloop
  endfacet
  facet normal 0 0 1
    outer loop
      vertex 25.7865 49.1183 10
      vertex 23.7865 5.88168 10
      vertex 25.4635 6.42658 10
    endloop
  endfacet
  facet normal 0 0 1
    outer loop
      vertex 25.7865 49.1183 10
      vertex 1.5 0 10
      vertex 23.7865 5.88168 10
    endloop
  endfacet
  facet normal 0 0 1
    outer loop
      vertex 25.7865 50.8817 10
      vertex 1.5 0 10
      vertex 25.7865 49.1183 10
    endloop
  endfacet
  facet normal 0 0 1
    outer loop
      vertex 113.464 3.57341 10
      vertex 1.5 0 10
      vertex 210 0 10
    endloop
  endfacet
  facet normal 0 0 1
    outer loop
      vertex 23.7865 4.11832 10
      vertex 1.5 0 10
      vertex 25.4635 3.57341 10
    endloop
  endfacet
  facet normal 0 0 1
    outer loop
      vertex 23.7865 5.88168 10
      vertex 1.5 0 10
      vertex 23.7865 4.11832 10
    endloop
  endfacet
  facet normal 0 0 1
    outer loop
      vertex 210 415 10
      vertex 144.5 50 10
      vertex 145.464 6.42658 10
    endloop
  endfacet
  facet normal -0 0 1
    outer loop
      vertex 143.464 48.5734 10
      vertex 145.464 6.42658 10
      vertex 144.5 50 10
    endloop
  endfacet
  facet normal 0 0 1
    outer loop
      vertex 118 30 10
      vertex 143.464 48.5734 10
      vertex 141.786 49.1183 10
    endloop
  endfacet
  facet normal -0 0 1
    outer loop
      vertex 118 30 10
      vertex 145.464 6.42658 10
      vertex 143.464 48.5734 10
    endloop
  endfacet
  facet normal 1 -0 0
    outer loop
      vertex 210 0 10
      vertex 210 415 0
      vertex 210 415 10
    endloop
  endfacet
  facet normal 1 0 0
    outer loop
      vertex 210 415 0
      vertex 210 0 10
      vertex 210 0 0
    endloop
  endfacet
  facet normal 0 1 -0
    outer loop
      vertex 189 436 0
      vertex 21 436 10
      vertex 189 436 10
    endloop
  endfacet
  facet normal 0 1 0
    outer loop
      vertex 21 436 10
      vertex 189 436 0
      vertex 21 436 0
    endloop
  endfacet
  facet normal 0 -1 0
    outer loop
      vertex 1.5 0 0
      vertex 210 0 10
      vertex 1.5 0 10
    endloop
  endfacet
  facet normal 0 -1 -0
    outer loop
      vertex 210 0 10
      vertex 1.5 0 0
      vertex 210 0 0
    endloop
  endfacet
endsolid OpenSCAD_Model
